<?xml version="1.0" ?><!DOCTYPE svg  PUBLIC '-//W3C//DTD SVG 1.1//EN'  'http://www.w3.org/Graphics/SVG/1.1/DTD/svg11.dtd'><svg enable-background="new 0 0 512 512" height="512px" id="Layer_1" version="1.1" viewBox="0 0 512 512" width="512px" xml:space="preserve" xmlns="http://www.w3.org/2000/svg" xmlns:xlink="http://www.w3.org/1999/xlink"><g><path d="M510.689,478.854c0,17.561-14.275,31.836-31.836,31.836H33.146c-17.559,0-31.836-14.275-31.836-31.836   V33.146c0-17.56,14.277-31.836,31.836-31.836h445.707c17.561,0,31.836,14.276,31.836,31.836V478.854z" fill="#ED1F24"/></g><path d="M334.759,106.018h-25.387c-2.25,0-3.652,1.104-3.979,2.704c-0.32,1.606-38.072,116.712-40.816,126.301  c-1.945,6.797-8.287,30.76-9.809,36.514l-13.13-35.845c-3.19-9.866-33.768-95.289-34.662-98.701  c-0.495-1.875-1.356-4.208-4.646-4.208h-24.785c-2.424,0-3.795,2.658-3.013,4.307c0.624,1.32,45.396,120.428,63.481,165.928v100.045  c0,1.824,0.729,2.92,2.551,2.92h23.473c1.455,0,2.549-1.096,2.549-2.92v-94.836v-4.42c15.076-42.109,70.15-191.903,70.75-193.58  C338.067,108.177,337.853,106.018,334.759,106.018z" fill="#FFFFFF"/></svg>